Run_20002
nRows=4
nColumns=164

# SIMM Motion File Header:
name Run_20002
datacolumns 164
datarows 4
otherdata 1
range 2.74000000 2.77000000
endheader
time	pelvis_tilt	pelvis_list	pelvis_rotation	pelvis_tx	pelvis_ty	pelvis_tz	hip_flexion_r	hip_adduction_r	hip_rotation_r	knee_angle_r	ankle_angle_r	hip_flexion_l	hip_adduction_l	hip_rotation_l	knee_angle_l	ankle_angle_l	lumbar_extension	lumbar_bending	lumbar_rotation	arm_flex_r	arm_add_r	arm_rot_r	elbow_flex_r	pro_sup_r	arm_flex_l	arm_add_l	arm_rot_l	elbow_flex_l	pro_sup_l	subtalar_angle_r	mtp_angle_r	subtalar_angle_l	mtp_angle_l	wrist_flex_r	wrist_dev_r	wrist_flex_l	wrist_dev_l	LASI_tx	LASI_ty	LASI_tz	RASI_tx	RASI_ty	RASI_tz	LPSI_tx	LPSI_ty	LPSI_tz	RPSI_tx	RPSI_ty	RPSI_tz	RTH1_tx	RTH1_ty	RTH1_tz	RTH2_tx	RTH2_ty	RTH2_tz	RTH3_tx	RTH3_ty	RTH3_tz	LTH1_tx	LTH1_ty	LTH1_tz	LTH2_tx	LTH2_ty	LTH2_tz	LTH3_tx	LTH3_ty	LTH3_tz	RTB1_tx	RTB1_ty	RTB1_tz	RTB2_tx	RTB2_ty	RTB2_tz	RTB3_tx	RTB3_ty	RTB3_tz	LTB1_tx	LTB1_ty	LTB1_tz	LTB2_tx	LTB2_ty	LTB2_tz	LTB3_tx	LTB3_ty	LTB3_tz	RCAL_tx	RCAL_ty	RCAL_tz	RTOE_tx	RTOE_ty	RTOE_tz	RMT5_tx	RMT5_ty	RMT5_tz	LCAL_tx	LCAL_ty	LCAL_tz	LTOE_tx	LTOE_ty	LTOE_tz	LMT5_tx	LMT5_ty	LMT5_tz	LACR_tx	LACR_ty	LACR_tz	RACR_tx	RACR_ty	RACR_tz	CLAV_tx	CLAV_ty	CLAV_tz	C7_tx	C7_ty	C7_tz	RUA1_tx	RUA1_ty	RUA1_tz	RUA2_tx	RUA2_ty	RUA2_tz	RUA3_tx	RUA3_ty	RUA3_tz	RLEL_tx	RLEL_ty	RLEL_tz	RMEL_tx	RMEL_ty	RMEL_tz	LUA1_tx	LUA1_ty	LUA1_tz	LUA2_tx	LUA2_ty	LUA2_tz	LUA3_tx	LUA3_ty	LUA3_tz	LLEL_tx	LLEL_ty	LLEL_tz	LMEL_tx	LMEL_ty	LMEL_tz	RFAsuperior_tx	RFAsuperior_ty	RFAsuperior_tz	RFAradius_tx	RFAradius_ty	RFAradius_tz	RFAulna_tx	RFAulna_ty	RFAulna_tz	LFAsuperior_tx	LFAsuperior_ty	LFAsuperior_tz	LFAradius_tx	LFAradius_ty	LFAradius_tz	LFAulna_tx	LFAulna_ty	LFAulna_tz
      2.74000000	      0.12642054	      3.21279169	      0.09931110	      0.67853233	      1.00043820	     -0.30595895	     28.00528647	     -1.30892712	      1.58542225	    -66.92647225	      5.51902282	     -2.79403187	      9.57511602	      9.76105974	    -21.38588129	     16.93727021	    -15.70035775	     -7.11926281	     -8.17739557	    -25.98157704	    -15.94635378	     -5.20318017	     87.66837030	     71.10553089	      1.28395670	    -19.97060388	     -0.40752699	     99.55936418	     95.28815202	      0.00000000	      0.00000000	      0.00000000	      0.00000000	      0.00000000	      0.00000000	      0.00000000	      0.00000000	      0.68556350	      1.02008576	     -0.44113250	      0.68301123	      1.01781844	     -0.17587642	      0.51257304	      1.04405033	     -0.35752548	      0.51448263	      1.04052631	     -0.26015181	      0.63031728	      0.82251692	     -0.13339344	      0.75087006	      0.74979963	     -0.14023107	      0.73025714	      0.62104420	     -0.16954157	      0.59840451	      0.82868337	     -0.47811699	      0.65841499	      0.69782568	     -0.45071861	      0.59278436	      0.58545591	     -0.43095365	      0.77064980	      0.40632572	     -0.23145180	      0.71077105	      0.38192065	     -0.17022113	      0.65617257	      0.28451459	     -0.22939460	      0.56549680	      0.35027697	     -0.34648399	      0.49406716	      0.28795059	     -0.41078380	      0.48952136	      0.21191337	     -0.33872821	      0.48363418	      0.24181794	     -0.24051516	      0.65973347	      0.10059686	     -0.23815593	      0.60723987	      0.11873850	     -0.15242299	      0.32697701	      0.11444398	     -0.33377577	      0.55131187	      0.06822052	     -0.31044189	      0.49903717	      0.05311728	     -0.40389057	      0.70752732	      1.47873592	     -0.49409424	      0.68174811	      1.50916154	     -0.16078938	      0.74704318	      1.43145374	     -0.28943147	      0.63139890	      1.51841425	     -0.33396616	      0.60529142	      1.44793260	     -0.08464456	      0.52586915	      1.39323663	     -0.12047656	      0.53518444	      1.34106197	     -0.06097673	      0.47163016	      1.25183786	     -0.03752806	      0.46006263	      1.24358026	     -0.11652151	      0.67109412	      1.38322133	     -0.56836716	      0.61777591	      1.29895222	     -0.54141746	      0.63818974	      1.23577359	     -0.58793005	      0.65377342	      1.15042162	     -0.61123864	      0.62202229	      1.14082529	     -0.53848840	      0.55227334	      1.17858537	     -0.02343540	      0.67310321	      1.07889633	     -0.05145885	      0.61417962	      1.03679914	     -0.04621862	      0.76080176	      1.14008050	     -0.57939540	      0.88628915	      1.13031781	     -0.47426812	      0.88504320	      1.06585831	     -0.50527417
      2.75000000	     -0.18015724	      2.35079061	      0.19560749	      0.67928968	      1.00601204	     -0.30526359	     28.30719521	     -0.23459614	      1.55224286	    -62.59713638	      5.58933141	     -4.84361726	      8.29662058	      9.79466502	    -18.92442899	     14.61513380	    -15.24800866	     -6.00582543	     -8.57085143	    -27.19756567	    -15.72804295	     -5.56173271	     88.26238711	     71.63418321	      1.50729443	    -20.04919600	      0.02027229	    101.54549131	     94.56917634	      0.00000000	      0.00000000	      0.00000000	      0.00000000	      0.00000000	      0.00000000	      0.00000000	      0.00000000	      0.68648544	      1.02412413	     -0.43997416	      0.68351767	      1.02463577	     -0.17610501	      0.51351909	      1.05024524	     -0.35751478	      0.51486128	      1.04723416	     -0.25976567	      0.63348728	      0.83098799	     -0.13182557	      0.75352691	      0.75779036	     -0.14007143	      0.73294171	      0.62829653	     -0.16809085	      0.59057311	      0.83246320	     -0.47670331	      0.64922198	      0.70137195	     -0.45005516	      0.57936318	      0.59120244	     -0.43116079	      0.78051922	      0.41135340	     -0.23226617	      0.72338517	      0.38196785	     -0.17071645	      0.67542950	      0.28055117	     -0.23039991	      0.54785289	      0.35592647	     -0.34778486	      0.47608597	      0.29412338	     -0.41189731	      0.47315521	      0.21837336	     -0.33961277	      0.50679518	      0.22462947	     -0.24073829	      0.69324314	      0.09732129	     -0.23951201	      0.64001965	      0.11300648	     -0.15271263	      0.31007161	      0.12181855	     -0.33484533	      0.53217943	      0.06854446	     -0.31044176	      0.48018967	      0.05388101	     -0.40380016	      0.70969020	      1.48591216	     -0.49205479	      0.68025366	      1.51479429	     -0.15963226	      0.74732170	      1.43763350	     -0.28740547	      0.63174284	      1.52385017	     -0.33306074	      0.60190888	      1.45508023	     -0.08473852	      0.52284201	      1.40159679	     -0.12201403	      0.53038703	      1.34900148	     -0.06223501	      0.46498396	      1.26079308	     -0.04041385	      0.45563458	      1.25304114	     -0.12018790	      0.67481557	      1.39066035	     -0.56716461	      0.62082339	      1.30653224	     -0.54194863	      0.64329715	      1.24292078	     -0.58810400	      0.65965920	      1.15757641	     -0.61022621	      0.62612125	      1.14829157	     -0.53792452	      0.54475549	      1.18710695	     -0.02540739	      0.66500190	      1.08665767	     -0.05244866	      0.60599692	      1.04476266	     -0.04786482	      0.76600618	      1.15099364	     -0.57615567	      0.88945222	      1.14680536	     -0.46865176	      0.89087109	      1.08179758	     -0.49824128
      2.76000000	     -0.51741038	      1.54000089	      0.29718055	      0.68015962	      1.01144016	     -0.30455739	     28.40206878	      0.78999979	      1.61611054	    -57.83609421	      5.41460232	     -6.69634636	      7.04747980	      9.51356303	    -16.67853855	     11.91489330	    -14.76994027	     -4.95723524	     -8.98598985	    -28.31417191	    -15.49989914	     -5.90113656	     88.82683842	     72.07706037	      1.58051159	    -20.21014554	      0.51953976	    103.52452662	     93.90507481	      0.00000000	      0.00000000	      0.00000000	      0.00000000	      0.00000000	      0.00000000	      0.00000000	      0.00000000	      0.68757054	      1.02832318	     -0.43866736	      0.68423880	      1.03137297	     -0.17619463	      0.51470801	      1.05640367	     -0.35744459	      0.51545419	      1.05385985	     -0.25924449	      0.63604066	      0.83884521	     -0.13031531	      0.75576807	      0.76543257	     -0.13998261	      0.73467350	      0.63536499	     -0.16694130	      0.58215923	      0.83674115	     -0.47579885	      0.64060012	      0.70568354	     -0.44958124	      0.56708321	      0.59738491	     -0.43194049	      0.78911675	      0.41595648	     -0.23325621	      0.73546322	      0.38152545	     -0.17131850	      0.69456635	      0.27664353	     -0.23204327	      0.53133463	      0.36219630	     -0.34957170	      0.45895128	      0.30103997	     -0.41329295	      0.45723988	      0.22490331	     -0.34108151	      0.53146484	      0.20745354	     -0.24115506	      0.72708564	      0.09472999	     -0.24110488	      0.67324973	      0.10758729	     -0.15330806	      0.29386634	      0.13030440	     -0.33574292	      0.51346332	      0.06845308	     -0.31084805	      0.46164904	      0.05478536	     -0.40381228	      0.71204430	      1.49284204	     -0.48989121	      0.67894874	      1.52033955	     -0.15851226	      0.74762276	      1.44373106	     -0.28537869	      0.63219354	      1.52925329	     -0.33214245	      0.59889107	      1.46211927	     -0.08480765	      0.52014757	      1.40977883	     -0.12340863	      0.52602531	      1.35674106	     -0.06359158	      0.45898349	      1.26946431	     -0.04328459	      0.45201553	      1.26216312	     -0.12392472	      0.67875160	      1.39802934	     -0.56605168	      0.62394951	      1.31423665	     -0.54305995	      0.64821691	      1.25020167	     -0.58866185	      0.66505052	      1.16486134	     -0.60951507	      0.62949045	      1.15581600	     -0.53790307	      0.53795264	      1.19538000	     -0.02733555	      0.65778176	      1.09433945	     -0.05344651	      0.59877102	      1.05256101	     -0.04960075	      0.77031186	      1.16133109	     -0.57270674	      0.89144645	      1.16262136	     -0.46322595	      0.89552127	      1.09714131	     -0.49156468
      2.77000000	     -0.83598660	      0.81447495	      0.39368337	      0.68119596	      1.01667510	     -0.30382162	     28.22161088	      1.72115386	      1.77686024	    -52.62867641	      4.78177914	     -8.40309856	      5.88725408	      8.99013205	    -14.68295774	      8.89600420	    -14.31158198	     -4.01358116	     -9.38858033	    -29.34617718	    -15.23650500	     -6.23367702	     89.36700497	     72.37311517	      1.55076788	    -20.44467132	      1.09448851	    105.44420857	     93.42346528	      0.00000000	      0.00000000	      0.00000000	      0.00000000	      0.00000000	      0.00000000	      0.00000000	      0.00000000	      0.68884893	      1.03272310	     -0.43724883	      0.68524484	      1.03786793	     -0.17613431	      0.51609813	      1.06230828	     -0.35723444	      0.51633202	      1.06024580	     -0.25857389	      0.63790775	      0.84583766	     -0.12872286	      0.75743993	      0.77247989	     -0.13992046	      0.73510296	      0.64195787	     -0.16638046	      0.57412990	      0.84157782	     -0.47540607	      0.63265890	      0.71058079	     -0.44943019	      0.55593703	      0.60379289	     -0.43307473	      0.79641624	      0.42005364	     -0.23419237	      0.74693657	      0.38071976	     -0.17175004	      0.71376332	      0.27316184	     -0.23401391	      0.51601004	      0.36885769	     -0.35167311	      0.44275260	      0.30847450	     -0.41487396	      0.44200500	      0.23152350	     -0.34300529	      0.55749840	      0.19077867	     -0.24165137	      0.76094453	      0.09297720	     -0.24325508	      0.70682044	      0.10153902	     -0.15481111	      0.27861759	      0.13965266	     -0.33651873	      0.49504260	      0.06799025	     -0.31152614	      0.44317186	      0.05578338	     -0.40404122	      0.71444778	      1.49943190	     -0.48765745	      0.67794070	      1.52564806	     -0.15741600	      0.74790279	      1.44956900	     -0.28340971	      0.63271905	      1.53449911	     -0.33121569	      0.59634743	      1.46885298	     -0.08481216	      0.51787566	      1.41760712	     -0.12477771	      0.52210835	      1.36417590	     -0.06499307	      0.45364267	      1.27765319	     -0.04610987	      0.44907248	      1.27082226	     -0.12763192	      0.68267754	      1.40523051	     -0.56501535	      0.62704790	      1.32192794	     -0.54463869	      0.65286045	      1.25740523	     -0.58938835	      0.66989149	      1.17205474	     -0.60897890	      0.63229356	      1.16316206	     -0.53831418	      0.53184537	      1.20315395	     -0.02926394	      0.65159880	      1.10170814	     -0.05443912	      0.59251519	      1.06002353	     -0.05148856	      0.77391524	      1.17117335	     -0.56949647	      0.89242706	      1.17752792	     -0.45792769	      0.89914037	      1.11156954	     -0.48525776
